<svg width="216" height="55" viewBox="0 0 216 55" fill="none" xmlns="http://www.w3.org/2000/svg">
<path d="M26.1498 18.1011H14.6914C14.1634 18.1011 13.8248 18.6626 14.0713 19.1295L25.5297 40.8402C25.8711 41.4872 26.851 41.2445 26.851 40.5129V18.8023C26.851 18.415 26.537 18.1011 26.1498 18.1011Z" fill="#E5F4FF"/>
<path fill-rule="evenodd" clip-rule="evenodd" d="M39.9426 18.1011H28.6538C28.2666 18.1011 27.9526 18.415 27.9526 18.8023V29.3121C27.9523 29.3208 27.9521 29.3296 27.9521 29.3383V40.5418C27.9521 41.1722 28.7193 41.4824 29.1574 41.0291L39.9892 29.8257C40.4195 29.3807 40.1041 28.6371 39.4851 28.6371H35.3866L40.5584 19.1375C40.8128 18.6703 40.4745 18.1011 39.9426 18.1011Z" fill="#FBB60D"/>
<path d="M54.6206 27.3103C54.6206 42.3933 42.3933 54.6206 27.3103 54.6206C12.2272 54.6206 0 42.3933 0 27.3103C0 12.2272 12.2272 0 27.3103 0C42.3933 0 54.6206 12.2272 54.6206 27.3103ZM5.14327 27.3103C5.14327 39.5528 15.0678 49.4773 27.3103 49.4773C39.5528 49.4773 49.4773 39.5528 49.4773 27.3103C49.4773 15.0678 39.5528 5.14327 27.3103 5.14327C15.0678 5.14327 5.14327 15.0678 5.14327 27.3103Z" fill="#FBB60D"/>
<path d="M76.7011 37.1472C75.417 37.1472 74.2666 36.9778 73.25 36.6389C72.2512 36.2822 71.4576 35.6847 70.869 34.8465C70.2983 34.0082 70.0129 32.8578 70.0129 31.3953V27.9175H67.8994C67.7032 27.9175 67.5338 27.8461 67.3911 27.7034C67.2484 27.5607 67.1771 27.3913 67.1771 27.1951V23.958C67.1771 23.7618 67.2484 23.5924 67.3911 23.4497C67.5338 23.307 67.7032 23.2357 67.8994 23.2357H70.0129V18.875C70.0129 18.6788 70.0842 18.5093 70.2269 18.3667C70.3696 18.224 70.539 18.1526 70.7352 18.1526H75.417C75.6132 18.1526 75.7826 18.224 75.9253 18.3667C76.068 18.5093 76.1393 18.6788 76.1393 18.875V23.2357H79.5102C79.7064 23.2357 79.8758 23.307 80.0185 23.4497C80.1612 23.5924 80.2325 23.7618 80.2325 23.958V27.1951C80.2325 27.3913 80.1612 27.5607 80.0185 27.7034C79.8758 27.8461 79.7064 27.9175 79.5102 27.9175H76.1393V30.8603C76.1393 31.2705 76.2285 31.6004 76.4069 31.8501C76.603 32.082 76.8973 32.1979 77.2897 32.1979H79.7242C79.9204 32.1979 80.0898 32.2693 80.2325 32.4119C80.3752 32.5546 80.4466 32.7241 80.4466 32.9203V36.4249C80.4466 36.6211 80.3752 36.7905 80.2325 36.9332C80.0898 37.0759 79.9204 37.1472 79.7242 37.1472H76.7011ZM86.7663 37.4147C85.7497 37.4147 84.849 37.2275 84.0643 36.8529C83.2795 36.4784 82.6642 35.9701 82.2183 35.328C81.7903 34.6859 81.5762 33.9636 81.5762 33.161C81.5762 31.8591 82.1024 30.8424 83.1547 30.1112C84.2248 29.3621 85.6516 28.836 87.4351 28.5328L90.2709 28.078V28.0512C90.2709 27.5875 90.2263 27.2486 90.1372 27.0346C90.0658 26.8206 89.8429 26.7136 89.4683 26.7136C89.2187 26.7136 89.0135 26.7671 88.853 26.8741C88.7104 26.9633 88.5498 27.097 88.3715 27.2754C88.1753 27.4716 87.9256 27.5697 87.6224 27.5697H83.0744C82.896 27.5697 82.7444 27.5162 82.6196 27.4091C82.5126 27.3021 82.468 27.1595 82.4858 26.9811C82.5037 26.6422 82.6464 26.2499 82.9139 25.804C83.1814 25.3403 83.5916 24.8944 84.1445 24.4663C84.7152 24.0383 85.4376 23.6816 86.3115 23.3962C87.2033 23.1108 88.2734 22.9682 89.5219 22.9682C90.7347 22.9682 91.7869 23.1019 92.6787 23.3695C93.5883 23.6191 94.3374 23.9937 94.9259 24.4931C95.5145 24.9746 95.9515 25.581 96.2368 26.3123C96.54 27.0257 96.6916 27.8372 96.6916 28.7468V36.4249C96.6916 36.6211 96.6203 36.7905 96.4776 36.9332C96.3349 37.0759 96.1655 37.1472 95.9693 37.1472H91.2875C91.0914 37.1472 90.9219 37.0759 90.7792 36.9332C90.6366 36.7905 90.5652 36.6211 90.5652 36.4249V35.6758C90.3155 36.0325 89.9945 36.3446 89.6021 36.6122C89.2276 36.8619 88.7995 37.058 88.318 37.2007C87.8364 37.3434 87.3192 37.4147 86.7663 37.4147ZM88.6123 33.4553C88.969 33.4553 89.2722 33.384 89.5219 33.2413C89.7894 33.0986 89.9945 32.8757 90.1372 32.5725C90.2799 32.2514 90.3512 31.8591 90.3512 31.3953V31.3686L88.7728 31.7164C88.3091 31.8234 87.9969 31.9661 87.8364 32.1444C87.6759 32.3228 87.5956 32.51 87.5956 32.7062C87.5956 32.8311 87.6313 32.9559 87.7027 33.0808C87.7918 33.1878 87.9078 33.277 88.0504 33.3483C88.211 33.4196 88.3982 33.4553 88.6123 33.4553ZM101.148 42.2303C100.988 42.2303 100.845 42.1768 100.72 42.0698C100.613 41.9627 100.56 41.829 100.56 41.6685C100.56 41.6328 100.56 41.5882 100.56 41.5347C100.56 41.499 100.569 41.4544 100.586 41.4009L102.727 36.2644L97.5634 24.065C97.5456 24.0115 97.5367 23.9491 97.5367 23.8778C97.5723 23.6994 97.6437 23.5478 97.7507 23.423C97.8755 23.2981 98.0271 23.2357 98.2055 23.2357H102.727C102.994 23.2357 103.19 23.307 103.315 23.4497C103.44 23.5924 103.529 23.7351 103.583 23.8778L105.777 29.9774L108.051 23.8778C108.122 23.7172 108.22 23.5746 108.345 23.4497C108.488 23.307 108.693 23.2357 108.96 23.2357H113.428C113.588 23.2357 113.731 23.2981 113.856 23.423C113.981 23.53 114.043 23.6548 114.043 23.7975C114.043 23.9045 114.034 23.9937 114.016 24.065L106.472 41.5882C106.401 41.7487 106.294 41.8914 106.151 42.0163C106.008 42.1589 105.803 42.2303 105.536 42.2303H101.148ZM116.123 37.1472C115.927 37.1472 115.757 37.0759 115.615 36.9332C115.472 36.7905 115.401 36.6211 115.401 36.4249V18.875C115.401 18.6788 115.472 18.5093 115.615 18.3667C115.757 18.224 115.927 18.1526 116.123 18.1526H120.912C121.108 18.1526 121.277 18.224 121.42 18.3667C121.563 18.5093 121.634 18.6788 121.634 18.875V36.4249C121.634 36.6211 121.563 36.7905 121.42 36.9332C121.277 37.0759 121.108 37.1472 120.912 37.1472H116.123ZM131.432 37.4147C129.791 37.4147 128.409 37.1918 127.286 36.7459C126.162 36.3 125.297 35.6312 124.69 34.7395C124.102 33.8477 123.763 32.7508 123.674 31.4488C123.656 31.0386 123.647 30.6195 123.647 30.1915C123.647 29.7456 123.656 29.3264 123.674 28.9341C123.763 27.6143 124.129 26.5174 124.771 25.6435C125.413 24.7517 126.296 24.0829 127.419 23.637C128.543 23.1911 129.881 22.9682 131.432 22.9682C132.984 22.9682 134.322 23.1911 135.445 23.637C136.569 24.0829 137.452 24.7517 138.094 25.6435C138.736 26.5174 139.101 27.6143 139.191 28.9341C139.226 29.3264 139.244 29.7456 139.244 30.1915C139.244 30.6195 139.226 31.0386 139.191 31.4488C139.101 32.7508 138.754 33.8477 138.147 34.7395C137.559 35.6312 136.703 36.3 135.579 36.7459C134.455 37.1918 133.073 37.4147 131.432 37.4147ZM131.432 33.1343C131.949 33.1343 132.27 32.9916 132.395 32.7062C132.52 32.403 132.6 31.9393 132.636 31.3151C132.654 31.0475 132.663 30.673 132.663 30.1915C132.663 29.7099 132.654 29.3354 132.636 29.0678C132.6 28.4793 132.52 28.0334 132.395 27.7302C132.27 27.4091 131.949 27.2486 131.432 27.2486C130.933 27.2486 130.612 27.4091 130.469 27.7302C130.344 28.0334 130.264 28.4793 130.228 29.0678C130.21 29.3354 130.202 29.7099 130.202 30.1915C130.202 30.673 130.21 31.0475 130.228 31.3151C130.264 31.9393 130.344 32.403 130.469 32.7062C130.612 32.9916 130.933 33.1343 131.432 33.1343ZM141.935 37.1472C141.739 37.1472 141.57 37.0759 141.427 36.9332C141.284 36.7905 141.213 36.6211 141.213 36.4249V23.958C141.213 23.7618 141.284 23.5924 141.427 23.4497C141.57 23.307 141.739 23.2357 141.935 23.2357H146.617C146.813 23.2357 146.983 23.307 147.126 23.4497C147.268 23.5924 147.34 23.7618 147.34 23.958V24.8944C147.91 24.395 148.543 23.9937 149.239 23.6905C149.952 23.3873 150.71 23.2357 151.513 23.2357H152.797C152.993 23.2357 153.163 23.307 153.305 23.4497C153.448 23.5924 153.519 23.7618 153.519 23.958V28.1315C153.519 28.3277 153.448 28.4971 153.305 28.6398C153.163 28.7825 152.993 28.8538 152.797 28.8538H149.346C148.811 28.8538 148.41 28.9876 148.142 29.2551C147.875 29.5226 147.741 29.9239 147.741 30.459V36.4249C147.741 36.6211 147.669 36.7905 147.527 36.9332C147.384 37.0759 147.215 37.1472 147.019 37.1472H141.935Z" fill="#FBB60D"/>
<path d="M157.548 37.1472C157.352 37.1472 157.182 37.0759 157.04 36.9332C156.897 36.7905 156.826 36.6211 156.826 36.4249V27.9175H154.98C154.783 27.9175 154.614 27.8461 154.471 27.7034C154.329 27.5607 154.257 27.3913 154.257 27.1951V23.958C154.257 23.7618 154.329 23.5924 154.471 23.4497C154.614 23.307 154.783 23.2357 154.98 23.2357H156.826V22.7809C156.826 21.3184 157.138 20.1948 157.762 19.41C158.386 18.6253 159.224 18.0902 160.277 17.8048C161.329 17.5016 162.497 17.35 163.781 17.35H166.269C166.466 17.35 166.635 17.4214 166.778 17.5641C166.92 17.7068 166.992 17.8762 166.992 18.0724V21.3095C166.992 21.5057 166.92 21.6751 166.778 21.8178C166.635 21.9605 166.466 22.0318 166.269 22.0318H164.102C163.71 22.0318 163.416 22.1121 163.219 22.2726C163.041 22.4153 162.952 22.6293 162.952 22.9147V23.2357H166.002C166.198 23.2357 166.367 23.307 166.51 23.4497C166.653 23.5924 166.724 23.7618 166.724 23.958V27.1951C166.724 27.3913 166.653 27.5607 166.51 27.7034C166.367 27.8461 166.198 27.9175 166.002 27.9175H162.952V36.4249C162.952 36.6211 162.881 36.7905 162.738 36.9332C162.595 37.0759 162.426 37.1472 162.23 37.1472H157.548ZM175.319 37.4147C172.983 37.4147 171.119 36.844 169.728 35.7026C168.355 34.5433 167.668 32.7151 167.668 30.2182C167.668 30.1825 167.668 30.1469 167.668 30.1112C167.668 30.0755 167.668 30.0488 167.668 30.0309C167.704 28.4971 168.034 27.204 168.658 26.1518C169.3 25.0995 170.183 24.3058 171.306 23.7708C172.448 23.2357 173.777 22.9682 175.293 22.9682C177.04 22.9682 178.476 23.307 179.6 23.9848C180.723 24.6447 181.553 25.5275 182.088 26.6333C182.641 27.7213 182.917 28.9251 182.917 30.245V31.0475C182.917 31.2437 182.846 31.4132 182.703 31.5559C182.56 31.6985 182.391 31.7699 182.195 31.7699H174.222C174.222 31.7877 174.222 31.8055 174.222 31.8234C174.222 31.8412 174.222 31.868 174.222 31.9036C174.222 32.2603 174.249 32.5635 174.303 32.8132C174.374 33.0451 174.49 33.2235 174.651 33.3483C174.811 33.4731 175.016 33.5356 175.266 33.5356C175.373 33.5356 175.462 33.5177 175.533 33.4821C175.623 33.4464 175.703 33.3929 175.774 33.3215C175.863 33.2324 175.953 33.1432 176.042 33.054C176.202 32.8935 176.336 32.7954 176.443 32.7597C176.55 32.7062 176.711 32.6795 176.925 32.6795H181.981C182.159 32.6795 182.302 32.733 182.409 32.84C182.534 32.947 182.587 33.0897 182.569 33.268C182.552 33.6069 182.391 34.0171 182.088 34.4987C181.802 34.9624 181.366 35.4172 180.777 35.8631C180.188 36.309 179.439 36.6835 178.53 36.9867C177.62 37.2721 176.55 37.4147 175.319 37.4147ZM174.222 28.4258H176.363V28.399C176.363 28.0066 176.318 27.6856 176.229 27.4359C176.158 27.1862 176.042 27.0079 175.881 26.9008C175.721 26.776 175.524 26.7136 175.293 26.7136C175.061 26.7136 174.865 26.776 174.704 26.9008C174.544 27.0079 174.419 27.1862 174.329 27.4359C174.258 27.6856 174.222 28.0066 174.222 28.399V28.4258ZM190.115 37.4147C189.348 37.4147 188.626 37.3077 187.948 37.0937C187.288 36.8619 186.7 36.5051 186.182 36.0236C185.683 35.5242 185.282 34.8821 184.978 34.0974C184.675 33.3126 184.497 32.3584 184.443 31.2348C184.426 30.8246 184.417 30.4679 184.417 30.1647C184.417 29.8615 184.426 29.5137 184.443 29.1213C184.479 28.0691 184.648 27.1595 184.952 26.3925C185.255 25.6078 185.656 24.9657 186.156 24.4663C186.673 23.9669 187.27 23.5924 187.948 23.3427C188.626 23.093 189.348 22.9682 190.115 22.9682C190.864 22.9682 191.533 23.0841 192.121 23.3159C192.728 23.53 193.245 23.8332 193.673 24.2255V18.875C193.673 18.6788 193.744 18.5093 193.887 18.3667C194.03 18.224 194.199 18.1526 194.395 18.1526H199.345C199.541 18.1526 199.71 18.224 199.853 18.3667C199.996 18.5093 200.067 18.6788 200.067 18.875V36.4249C200.067 36.6211 199.996 36.7905 199.853 36.9332C199.71 37.0759 199.541 37.1472 199.345 37.1472H194.797C194.601 37.1472 194.431 37.0759 194.288 36.9332C194.146 36.7905 194.074 36.6211 194.074 36.4249V35.8096C193.646 36.2911 193.111 36.6835 192.469 36.9867C191.827 37.2721 191.042 37.4147 190.115 37.4147ZM192.335 32.626C192.674 32.626 192.933 32.5635 193.111 32.4387C193.307 32.3139 193.441 32.1355 193.513 31.9036C193.602 31.6718 193.655 31.3953 193.673 31.0743C193.709 30.6641 193.727 30.3341 193.727 30.0844C193.727 29.8169 193.709 29.487 193.673 29.0946C193.655 28.8092 193.593 28.5684 193.486 28.3723C193.397 28.1761 193.254 28.0245 193.058 27.9175C192.879 27.8104 192.639 27.7569 192.335 27.7569C192.014 27.7569 191.756 27.8194 191.56 27.9442C191.381 28.0691 191.248 28.2474 191.158 28.4793C191.087 28.7111 191.033 28.9876 190.998 29.3086C190.944 29.8972 190.944 30.4857 190.998 31.0743C191.033 31.3953 191.087 31.6718 191.158 31.9036C191.248 32.1355 191.381 32.3139 191.56 32.4387C191.756 32.5635 192.014 32.626 192.335 32.626ZM211.093 37.1472C209.809 37.1472 208.658 36.9778 207.642 36.6389C206.643 36.2822 205.849 35.6847 205.261 34.8465C204.69 34.0082 204.405 32.8578 204.405 31.3953V27.9175H202.291C202.095 27.9175 201.925 27.8461 201.783 27.7034C201.64 27.5607 201.569 27.3913 201.569 27.1951V23.958C201.569 23.7618 201.64 23.5924 201.783 23.4497C201.925 23.307 202.095 23.2357 202.291 23.2357H204.405V18.875C204.405 18.6788 204.476 18.5093 204.619 18.3667C204.761 18.224 204.931 18.1526 205.127 18.1526H209.809C210.005 18.1526 210.174 18.224 210.317 18.3667C210.46 18.5093 210.531 18.6788 210.531 18.875V23.2357H213.902C214.098 23.2357 214.268 23.307 214.41 23.4497C214.553 23.5924 214.624 23.7618 214.624 23.958V27.1951C214.624 27.3913 214.553 27.5607 214.41 27.7034C214.268 27.8461 214.098 27.9175 213.902 27.9175H210.531V30.8603C210.531 31.2705 210.62 31.6004 210.799 31.8501C210.995 32.082 211.289 32.1979 211.681 32.1979H214.116C214.312 32.1979 214.482 32.2693 214.624 32.4119C214.767 32.5546 214.838 32.7241 214.838 32.9203V36.4249C214.838 36.6211 214.767 36.7905 214.624 36.9332C214.482 37.0759 214.312 37.1472 214.116 37.1472H211.093Z" fill="#E5F4FF"/>
</svg>
